<svg xmlns="http://www.w3.org/2000/svg" viewBox="0 0 100 100" fill="white">
  <!-- Background -->
  <rect width="100" height="100" fill="#0a0a0a"/>
  <!-- O circle -->
  <path d="M50 5C74.85 5 95 25.15 95 50C95 74.85 74.85 95 50 95C25.15 95 5 74.85 5 50C5 25.15 25.15 5 50 5ZM50 20C33.43 20 20 33.43 20 50C20 66.57 33.43 80 50 80C66.57 80 80 66.57 80 50C80 33.43 66.57 20 50 20Z" fill="white"/>
  <!-- Figure inside - stylized spread figure -->
  <circle cx="50" cy="40" r="5" fill="white"/>
  <path d="M38 56L44 49L50 57L56 49L62 56" stroke="white" stroke-width="3" fill="none" stroke-linecap="round" stroke-linejoin="round"/>
  <path d="M41 68L47 59M59 68L53 59" stroke="white" stroke-width="3" fill="none" stroke-linecap="round" stroke-linejoin="round"/>
</svg>
